Coordinates
version=1
nRows=10
nColumns=40
inDegrees=yes

Units are S.I. units (second, meters, Newtons, ...)
Angles are in degrees.

endheader
time	pelvis_tilt	pelvis_list	pelvis_rotation	pelvis_tx	pelvis_ty	pelvis_tz	hip_flexion_r	hip_adduction_r	hip_rotation_r	knee_angle_r	knee_angle_r_beta	ankle_angle_r	subtalar_angle_r	mtp_angle_r	hip_flexion_l	hip_adduction_l	hip_rotation_l	knee_angle_l	knee_angle_l_beta	ankle_angle_l	subtalar_angle_l	mtp_angle_l	lumbar_extension	lumbar_bending	lumbar_rotation	arm_flex_r	arm_add_r	arm_rot_r	elbow_flex_r	pro_sup_r	wrist_flex_r	wrist_dev_r	arm_flex_l	arm_add_l	arm_rot_l	elbow_flex_l	pro_sup_l	wrist_flex_l	wrist_dev_l
     57.59128571	     -3.64861834	     -4.58851791	     -2.37487917	      1.12861207	      0.93456042	      0.44298366	     30.98474373	     -5.65684201	     -5.60225656	     63.03879565	     63.03879565	      1.40762264	    -18.94947380	      5.12023110	     13.76462172	     -6.35080546	     -7.86502052	     22.01195121	     22.01195121	     13.42286858	    -16.28738943	      5.76546570	    -11.74814553	      5.98704061	      1.06660837	     -0.14167405	    -16.08412208	    -10.27119456	     33.30526415	     46.51376627	      0.00000000	      0.00000000	      1.92834713	    -15.28453754	     -1.87141941	     58.89249218	     46.09867344	      0.00000000	      0.00000000
     57.60507143	     -3.73268822	     -4.67090257	     -2.74839789	      1.12757732	      0.93534321	      0.44382308	     31.47423288	     -5.50563254	     -5.86672461	     60.68787105	     60.68787105	      3.38702329	    -18.83333287	      8.49360695	     13.08800134	     -6.47230741	     -8.18044162	     21.30055940	     21.30055940	     13.28679703	    -16.20246473	      5.41327264	    -11.94507046	      6.10740905	      1.02876006	     -0.06203006	    -15.83434251	    -10.57593565	     33.37351788	     46.51331213	      0.00000000	      0.00000000	      1.79866485	    -15.53109960	     -1.54586484	     59.90846343	     46.12145271	      0.00000000	      0.00000000
     57.61885714	     -4.08476979	     -4.82347657	     -3.10159385	      1.12641866	      0.93553962	      0.44487517	     31.99800657	     -5.28377210	     -6.24434050	     57.76651860	     57.76651860	      4.24355728	    -18.65192841	      8.71487094	     12.88025593	     -6.71212762	     -8.42645759	     20.90531500	     20.90531500	     13.33883809	    -16.19759853	      5.42389698	    -11.75310783	      6.28450000	      0.96836197	     -0.02533371	    -15.63970182	    -10.57137591	     33.45021054	     46.50723473	      0.00000000	      0.00000000	      1.91418621	    -15.54950053	     -1.49466014	     60.09673233	     46.12616783	      0.00000000	      0.00000000
     57.63264286	     -4.17523335	     -5.02753797	     -3.43441298	      1.12542754	      0.93607423	      0.44611261	     31.98502829	     -4.87012818	     -6.44685668	     54.35805034	     54.35805034	      4.88629386	    -18.29844370	      8.77143200	     12.32117152	     -7.00545162	     -8.72454062	     20.41931535	     20.41931535	     13.39921918	    -16.08808340	      5.35643716	    -11.91358710	      6.50245525	      0.93530185	      0.09284685	    -15.55711639	    -10.59386557	     33.65454257	     46.49613925	      0.00000000	      0.00000000	      1.96237416	    -15.58230741	     -1.36521345	     60.47877195	     46.13189882	      0.00000000	      0.00000000
     57.64642857	     -4.30727631	     -5.14179228	     -3.78148233	      1.12449380	      0.93624861	      0.44748016	     31.79930500	     -4.54002653	     -6.59625328	     50.51574738	     50.51574738	      4.67712424	    -17.66759240	      6.38164484	     11.81171862	     -7.23440600	     -9.16086735	     19.94102247	     19.94102247	     13.25411594	    -15.94540911	      4.58056423	    -12.06404401	      6.61496209	      0.91300123	      0.02417996	    -15.42061138	    -10.60514731	     34.54514398	     46.43279353	      0.00000000	      0.00000000	      1.66266298	    -15.91649579	     -0.83902075	     61.85020816	     46.16574362	      0.00000000	      0.00000000
     57.66021429	     -4.53463233	     -5.29699411	     -4.06963996	      1.12353370	      0.93614365	      0.44899265	     31.58922614	     -4.11290436	     -6.68507976	     46.53500541	     46.53500541	      5.08846385	    -16.35454862	      6.16822781	     11.55688166	     -7.50663923	     -9.34514679	     19.73976531	     19.73976531	     13.38132836	    -15.97283251	      4.49749222	    -12.01290347	      6.77517412	      0.89639974	      0.19300965	    -15.30170569	    -10.55018953	     34.73983759	     46.41842664	      0.00000000	      0.00000000	      1.77836733	    -15.89794226	     -0.75857226	     61.98182888	     46.17187165	      0.00000000	      0.00000000
     57.67400000	     -4.71690737	     -5.41720645	     -4.32104626	      1.12275895	      0.93591724	      0.45057471	     31.10760802	     -3.76245052	     -6.89008511	     42.29709153	     42.29709153	      5.43032877	    -14.45562546	      5.73475139	     11.25355008	     -7.75252848	     -9.59744623	     19.55222623	     19.55222623	     13.52346590	    -15.90895171	      4.34673322	    -12.03563474	      6.93259471	      0.89411518	      0.37111693	    -15.18844775	    -10.48225984	     35.02429148	     46.39962497	      0.00000000	      0.00000000	      1.83690667	    -15.89889976	     -0.63694916	     62.21951866	     46.17617150	      0.00000000	      0.00000000
     57.68778571	     -4.79691953	     -5.41847635	     -4.53970735	      1.12225910	      0.93550408	      0.45223631	     30.12996995	     -3.57047626	     -7.29639918	     37.44407422	     37.44407422	      3.81840005	    -12.75088187	     -0.15656314	     10.82004592	     -7.88372324	     -9.95019403	     19.34103164	     19.34103164	     13.44371010	    -15.80190916	      3.37663813	    -12.14787254	      6.93042293	      0.95295595	      0.10011335	    -15.24341195	     -9.70396909	     36.50214007	     46.24563631	      0.00000000	      0.00000000	      1.73488506	    -16.15366766	     -0.01864213	     63.06022175	     46.25687732	      0.00000000	      0.00000000
     57.70157143	     -4.94180681	     -5.45541254	     -4.68956592	      1.12186340	      0.93488975	      0.45404194	     29.28116056	     -3.26201439	     -7.66504929	     33.05464609	     33.05464609	      4.07134870	    -10.18364582	      0.10579857	     10.54464515	     -8.05378690	    -10.11168627	     19.30315385	     19.30315385	     13.69448805	    -15.73384802	      3.18964846	    -12.12558186	      6.99451922	      0.93640423	      0.34163293	    -15.13723860	     -9.63106067	     36.69395202	     46.23114758	      0.00000000	      0.00000000	      1.78309590	    -16.10357546	      0.08140175	     63.15717781	     46.26322048	      0.00000000	      0.00000000
     57.71535714	     -5.02117703	     -5.36894926	     -4.80525655	      1.12177064	      0.93413412	      0.45592836	     28.27894717	     -3.14156215	     -8.34846115	     28.84998871	     28.84998871	      4.23276278	     -7.07838012	      0.36696697	     10.17733293	     -8.10124274	    -10.36675806	     19.24792197	     19.24792197	     13.95456383	    -15.51535365	      2.85197769	    -12.13000653	      6.89832804	      0.90955755	      0.54604469	    -15.00962266	     -9.47956279	     37.03419065	     46.20334648	      0.00000000	      0.00000000	      1.78443812	    -16.11749024	      0.24473201	     63.33707045	     46.27326102	      0.00000000	      0.00000000
